<svg width="20" height="20" viewBox="0 0 20 20" fill="none" xmlns="http://www.w3.org/2000/svg">
<path d="M10.0033 20C8.62111 20 7.32111 19.7378 6.10333 19.2133C4.8863 18.6881 3.82741 17.9756 2.92667 17.0756C2.02593 16.1756 1.31296 15.1178 0.787778 13.9022C0.262593 12.6867 0 11.387 0 10.0033C0 8.61963 0.262593 7.31963 0.787778 6.10333C1.31222 4.8863 2.0237 3.82741 2.92222 2.92667C3.82074 2.02593 4.87889 1.31296 6.09667 0.787778C7.31445 0.262593 8.61444 0 9.99667 0C11.3789 0 12.6789 0.262593 13.8967 0.787778C15.1137 1.31222 16.1726 2.02407 17.0733 2.92333C17.9741 3.82259 18.687 4.88074 19.2122 6.09778C19.7374 7.31481 20 8.61444 20 9.99667C20 11.3789 19.7378 12.6789 19.2133 13.8967C18.6889 15.1144 17.9763 16.1733 17.0756 17.0733C16.1748 17.9733 15.117 18.6863 13.9022 19.2122C12.6874 19.7381 11.3878 20.0007 10.0033 20ZM10 18.8889C12.4815 18.8889 14.5833 18.0278 16.3056 16.3056C18.0278 14.5833 18.8889 12.4815 18.8889 10C18.8889 7.51852 18.0278 5.41667 16.3056 3.69444C14.5833 1.97222 12.4815 1.11111 10 1.11111C7.51852 1.11111 5.41667 1.97222 3.69444 3.69444C1.97222 5.41667 1.11111 7.51852 1.11111 10C1.11111 12.4815 1.97222 14.5833 3.69444 16.3056C5.41667 18.0278 7.51852 18.8889 10 18.8889ZM6.24 13.7611V11.3056L12.1644 5.40778C12.2741 5.31296 12.3874 5.24259 12.5044 5.19667C12.6207 5.15148 12.7374 5.12889 12.8544 5.12889C12.9811 5.12889 13.1059 5.15259 13.2289 5.2C13.3519 5.24741 13.4637 5.31889 13.5644 5.41444L14.5922 6.46333C14.6833 6.5737 14.7526 6.68778 14.8 6.80556C14.8481 6.92407 14.8722 7.04259 14.8722 7.16111C14.8722 7.27889 14.8493 7.39778 14.8033 7.51778C14.7574 7.63778 14.687 7.75296 14.5922 7.86333L8.69444 13.7611H6.24ZM7.22222 12.7778H8.27778L12.13 8.91889L11.63 8.36889L11.1022 7.84889L7.22222 11.7222V12.7778ZM11.63 8.36889L11.1022 7.84778L12.13 8.91889L11.63 8.36889Z" fill="white"/>
</svg>
