<svg width="24" height="15" viewBox="0 0 24 15" fill="none" xmlns="http://www.w3.org/2000/svg">
<path d="M22.5593 6.2153H19.4236C18.6314 6.21133 17.8706 6.53271 17.3114 7.10761L12.4991 12.0376V1.38568C12.4957 0.821576 12.1608 0.31515 11.6507 0.102697C11.1406 -0.109756 10.5557 0.0136365 10.1691 0.4153L4.91035 5.80261C4.65488 6.06841 4.30545 6.21723 3.94134 6.2153H0.816576C0.365594 6.2153 0 6.58983 0 7.05184C0 7.51385 0.365594 7.88838 0.816576 7.88838H3.94134C4.75726 7.90502 5.54421 7.57851 6.11888 6.98492L10.8441 2.06607V12.718C10.843 13.2804 11.1745 13.7875 11.6825 14.0007C11.8471 14.0749 12.0252 14.1129 12.2051 14.1122C12.5657 14.1124 12.9111 13.9636 13.1632 13.6995L18.4655 8.28992C18.7208 8.03201 19.0651 7.88771 19.4236 7.88838H22.5593C23.0103 7.88838 23.3759 7.51385 23.3759 7.05184C23.3759 6.58983 23.0103 6.2153 22.5593 6.2153V6.2153Z" fill="#FFA800"/>
</svg>
